<!--<svg xmlns="http://www.w3.org/2000/svg" viewBox="0 0 100 100" width="100" height="100">-->
<!--    &lt;!&ndash; Speech Bubble &ndash;&gt;-->
<!--    <path d="M20,20 H80 C85,20 85,30 80,30 H30 C25,30 20,35 20,40 V70 C20,75 25,80 30,80 H75 L90,90 L85,80 C90,75 90,65 85,60 H30 C25,60 20,55 20,50 Z" fill="#4CAF50"/>-->

<!--    &lt;!&ndash; Gear inside the bubble &ndash;&gt;-->
<!--    <circle cx="60" cy="50" r="10" fill="white"/>-->
<!--    <path d="M60,45 L62,40 L65,42 L63,47 L67,48 L65,50 L67,52 L63,53 L65,58 L62,60 L60,55 L58,60 L55,58 L57,53 L53,52 L55,50 L53,48 L57,47 L55,42 L58,40 Z" fill="#4CAF50"/>-->

<!--    &lt;!&ndash; Text "Message INC" inside &ndash;&gt;-->
<!--    <text x="25" y="80" font-family="Arial" font-size="12" fill="white">Message INC</text>-->
<!--</svg>-->

<svg xmlns="http://www.w3.org/2000/svg" viewBox="0 0 100 100" width="100" height="100">
    <!-- Speech Bubble -->
    <path d="M10,30 Q20,10 50,10 Q80,10 90,30 Q90,50 70,60 Q60,55 50,60 Q40,55 30,60 Q20,50 10,30 Z" fill="#4CAF50"/>
    <!-- Text inside the bubble -->
    <text x="25" y="45" font-family="Arial" font-size="18" fill="white">INC</text>
</svg>



